# xmcd CD database file
#
# Track frame offsets:
#	150
#	16784
#	30207
#	43358
#	64863
#	85422
#	100814
#	119696
#	135467
#	158319
#	162646
#	176664
#	183273
#
# Disc length: 2759 seconds
#
# Revision: 0
# Processed by: cddbd v1.5.1PL0 Copyright (c) Steve Scherf et al.
# Submitted via: CDex 1.51
#
DISCID=a20ac50d
DTITLE=Lee Kontiz, Rudi Mahall, Andreas Schmidt, Jerry Granelli - Haiku
DYEAR=1995
DGENRE=Jazz
TTITLE0=The Man who came to dinner
TTITLE1=There is a sun chase
TTITLE2=Hi-Lee
TTITLE3=Fun keys
TTITLE4=Uki-ah
TTITLE5=Steinolphonk
TTITLE6=Geraldo
TTITLE7=ittle onk usic
TTITLE8=The princess
TTITLE9=Nuts
TTITLE10=Egyptian caravan
TTITLE11=rudimentär
TTITLE12=Freezoo
EXTD=YEAR: 1995
EXTT0=
EXTT1=
EXTT2=
EXTT3=
EXTT4=
EXTT5=
EXTT6=
EXTT7=
EXTT8=
EXTT9=
EXTT10=
EXTT11=
EXTT12=
PLAYORDER=
